<svg xmlns="http://www.w3.org/2000/svg" viewBox="0 0 1080 300"><defs><style>.cls-1,.cls-2,.cls-4{fill:#1d1d1b;}.cls-1,.cls-4{stroke:#1d1d1b;}.cls-1,.cls-3,.cls-4{stroke-miterlimit:10;}.cls-1{stroke-width:3px;}.cls-3{fill:#fff;stroke:#fff;}.cls-3,.cls-4{stroke-width:2px;}</style></defs><g id="Dark_Version" data-name="Dark Version"><path class="cls-1" d="M93.77,94.3h90.56v15.47H109.56v49.52h74.12v15.47H109.56v62.09h74.12v15.47H93.77Z"/><path class="cls-1" d="M211.61,252.32V94.3h32.77q35.44,0,51.45,5.69a68.78,68.78,0,0,1,35.93,27.93q12.94,19.87,12.95,47.37,0,23.75-10.26,41.79t-26.64,26.64q-16.38,8.59-45.93,8.6Zm15.15-14.94H245q32.76,0,45.44-4.07a52.48,52.48,0,0,0,28-20.88q10.2-15.08,10.2-36.87,0-22.86-11.06-39.07t-30.83-22.21q-14.83-4.52-48.88-4.51H226.76Z"/><path class="cls-1" d="M375.86,94.3h15.79v95.39q0,17,.64,21.16a35.18,35.18,0,0,0,5.48,15.63Q402.08,232.77,411,237a41.35,41.35,0,0,0,17.94,4.24,35.37,35.37,0,0,0,15-3.33,33.52,33.52,0,0,0,12-9.24,37.78,37.78,0,0,0,7.09-14.28q1.61-6,1.61-24.71V94.3h15.79v95.39q0,21.17-4.14,34.21t-16.54,22.72q-12.4,9.67-30,9.67-19.12,0-32.77-9.13A44,44,0,0,1,378.76,223q-2.89-9.24-2.9-33.3Z"/><path class="cls-2" d="M519.38,94.3h15.79V237.06H596v15.26H519.38Z"/><path class="cls-2" d="M784.17,94.3h31.15q18.79,0,28.9,4.46a35.34,35.34,0,0,1,15.95,13.69A37.58,37.58,0,0,1,866,133a36.91,36.91,0,0,1-5.14,19.18,38,38,0,0,1-15.07,14q12.31,4.2,19,9.83a39.29,39.29,0,0,1,10.33,13.65,40.73,40.73,0,0,1,3.7,17.34,42.61,42.61,0,0,1-13.91,32.18Q851,252.32,827.57,252.32h-43.4Zm15.47,15.47v50.59h9q16.47,0,24.22-3.06a26.11,26.11,0,0,0,12.28-9.67A25.4,25.4,0,0,0,849.7,133q0-10.84-7.59-17t-24.17-6.17Zm0,66.49v60.59h19.58q17.32,0,25.4-3.39a28.76,28.76,0,0,0,13-10.58,27.61,27.61,0,0,0-2-33.94q-6.89-7.84-18.93-10.75-8.07-1.92-28.1-1.93Z"/><path class="cls-2" d="M893.74,222.88l13.43-8q14.18,26.1,32.76,26.1a31.37,31.37,0,0,0,14.93-3.71,26.24,26.24,0,0,0,10.64-9.93,25.79,25.79,0,0,0,3.65-13.22q0-7.95-5.37-15.57-7.41-10.53-27.07-25.35t-24.6-21.6a39.43,39.43,0,0,1-8.38-24.17,36.74,36.74,0,0,1,4.94-18.8,35.26,35.26,0,0,1,13.91-13.37,40.09,40.09,0,0,1,19.5-4.89A41.52,41.52,0,0,1,963,95.86q9.72,5.53,20.57,20.35L970.65,126q-8.91-11.82-15.2-15.58a26.24,26.24,0,0,0-13.69-3.76q-9.57,0-15.63,5.8a19,19,0,0,0-6.07,14.29,24.21,24.21,0,0,0,2.15,10q2.14,4.83,7.84,10.53,3.12,3,20.41,15.79Q971,178.2,978.6,190t7.63,23.74q0,17.19-13.05,29.86t-31.74,12.68a46.59,46.59,0,0,1-26.11-7.68Q903.63,240.93,893.74,222.88Z"/><polygon class="cls-2" points="769.51 252.37 610.63 252.37 667.38 166.13 667.38 109.08 655.28 109.08 655.28 94.08 682.38 94.08 682.38 170.62 638.46 237.37 741.68 237.37 697.76 170.62 697.76 94.08 724.86 94.08 724.86 109.08 712.76 109.08 712.76 166.13 769.51 252.37"/><path class="cls-3" d="M674.09,196.62c11.37,13.9,17.56-6.54,32,0L728,229.87H652.22Z"/><path class="cls-4" d="M706.09,196.62c-10.32,13.15-18.94-6-32,0l-21.87,33.25H728Z"/><circle class="cls-4" cx="680.96" cy="54.71" r="11"/><circle class="cls-3" cx="698.71" cy="79.33" r="7.5"/></g></svg>