<svg id="Capa_1" data-name="Capa 1" xmlns="http://www.w3.org/2000/svg" viewBox="0 0 300 300"><defs><style>.cls-1{fill:#1d1d1b;}.cls-2{fill:#322d83;}.cls-3{fill:#11a750;}.cls-4{fill:#e83f44;}.cls-5{fill:#af1370;}</style></defs><polygon class="cls-1" points="229.44 254.33 70.56 254.33 127.31 168.09 127.31 111.04 115.21 111.04 115.21 96.04 142.31 96.04 142.31 172.58 98.39 239.33 201.61 239.33 157.69 172.58 157.69 96.04 184.79 96.04 184.79 111.04 172.69 111.04 172.69 168.09 229.44 254.33"/><path class="cls-2" d="M134,198.58c11.37,13.9,17.56-6.54,32,0l21.88,33.25H112.15Z"/><path class="cls-3" d="M166,198.58c-10.32,13.15-18.94-6-32,0l-21.87,33.25H187.9Z"/><circle class="cls-4" cx="140.89" cy="56.67" r="11"/><circle class="cls-5" cx="158.64" cy="81.29" r="7.5"/></svg>