<?xml version="1.0" encoding="utf-8"?>
<!-- Generator: Adobe Illustrator 24.1.0, SVG Export Plug-In . SVG Version: 6.00 Build 0)  -->
<svg version="1.1" id="Capa_1" xmlns="http://www.w3.org/2000/svg" xmlns:xlink="http://www.w3.org/1999/xlink" x="0px" y="0px"
	 viewBox="0 0 208 208" style="enable-background:new 0 0 208 208;" xml:space="preserve">
<style type="text/css">
	.st0{fill:#1D1D1B;}
	.st1{fill:#322D83;}
	.st2{fill:#11A750;}
	.st3{fill:#E83F44;}
	.st4{fill:#AF1370;}
</style>
<polygon class="st0" points="183.4,208.3 24.6,208.3 81.3,122.1 81.3,65 69.2,65 69.2,50 96.3,50 96.3,126.6 52.4,193.3 
	155.6,193.3 111.7,126.6 111.7,50 138.8,50 138.8,65 126.7,65 126.7,122.1 "/>
<path class="st1" d="M88,152.6c11.4,13.9,17.6-6.5,32,0l21.9,33.3H66.2L88,152.6z"/>
<path class="st2" d="M120,152.6c-10.3,13.1-18.9-6-32,0l-21.9,33.3h75.8L120,152.6z"/>
<circle class="st3" cx="94.9" cy="10.7" r="11"/>
<circle class="st4" cx="112.6" cy="35.3" r="7.5"/>
</svg>
