<svg xmlns="http://www.w3.org/2000/svg" viewBox="0 0 1080 289.04"><defs><style>.cls-1,.cls-3{fill:#fff;}.cls-1,.cls-2,.cls-3{stroke:#1d1d1b;stroke-miterlimit:10;}.cls-1{stroke-width:3px;}.cls-2{fill:#1d1d1b;}.cls-2,.cls-3{stroke-width:2px;}</style></defs><g id="Light_Version" data-name="Light Version"><path class="cls-1" d="M93.77,87.32h90.56v15.47H109.56v49.52h74.12v15.47H109.56v62.09h74.12v15.47H93.77Z"/><path class="cls-1" d="M211.61,245.34v-158h32.77q35.44,0,51.45,5.69a68.78,68.78,0,0,1,35.93,27.93q12.94,19.88,12.95,47.38,0,23.73-10.26,41.78t-26.64,26.64q-16.38,8.59-45.93,8.6Zm15.15-14.93H245q32.76,0,45.44-4.08a52.43,52.43,0,0,0,28-20.88q10.2-15.07,10.2-36.87,0-22.86-11.06-39.07T286.81,107.3q-14.83-4.51-48.88-4.51H226.76Z"/><path class="cls-1" d="M375.86,87.32h15.79v95.39q0,17,.64,21.16a35.18,35.18,0,0,0,5.48,15.63Q402.08,225.79,411,230a41.35,41.35,0,0,0,17.94,4.24,35.37,35.37,0,0,0,15-3.33,33.52,33.52,0,0,0,12-9.24,37.78,37.78,0,0,0,7.09-14.28q1.61-6,1.61-24.71V87.32h15.79v95.39q0,21.16-4.14,34.21t-16.54,22.72q-12.4,9.68-30,9.67-19.12,0-32.77-9.13A44,44,0,0,1,378.76,216q-2.89-9.24-2.9-33.3Z"/><path class="cls-1" d="M519.38,87.32h15.79V230.08H596v15.26H519.38Z"/><path class="cls-1" d="M784.17,87.32h31.15q18.79,0,28.9,4.46a35.4,35.4,0,0,1,15.95,13.69A37.58,37.58,0,0,1,866,126a36.91,36.91,0,0,1-5.14,19.18,38,38,0,0,1-15.07,14q12.31,4.2,19,9.83a39.29,39.29,0,0,1,10.33,13.65,40.74,40.74,0,0,1,3.7,17.35,42.6,42.6,0,0,1-13.91,32.17Q851,245.33,827.57,245.34h-43.4Zm15.47,15.47v50.59h9q16.47,0,24.22-3.06a26.15,26.15,0,0,0,12.28-9.66A25.45,25.45,0,0,0,849.7,126q0-10.84-7.59-17t-24.17-6.18Zm0,66.49v60.59h19.58q17.32,0,25.4-3.38a28.84,28.84,0,0,0,13-10.59,27.61,27.61,0,0,0-2-33.94q-6.89-7.85-18.93-10.74-8.07-1.93-28.1-1.94Z"/><path class="cls-1" d="M893.74,215.9l13.43-8.05Q921.35,234,939.93,234a31.36,31.36,0,0,0,14.93-3.7,26.33,26.33,0,0,0,10.64-9.94,25.76,25.76,0,0,0,3.65-13.22q0-7.93-5.37-15.57-7.41-10.53-27.07-25.35t-24.6-21.59a39.47,39.47,0,0,1-8.38-24.17,36.69,36.69,0,0,1,4.94-18.8,35.21,35.21,0,0,1,13.91-13.38,40.2,40.2,0,0,1,19.5-4.89A41.52,41.52,0,0,1,963,88.88q9.72,5.53,20.57,20.35L970.65,119q-8.91-11.82-15.2-15.58a26.24,26.24,0,0,0-13.69-3.76q-9.57,0-15.63,5.8a19,19,0,0,0-6.07,14.29,24.21,24.21,0,0,0,2.15,10q2.14,4.83,7.84,10.53,3.12,3,20.41,15.79Q971,171.22,978.6,183t7.63,23.74q0,17.19-13.05,29.87t-31.74,12.67a46.59,46.59,0,0,1-26.11-7.68Q903.63,234,893.74,215.9Z"/><polygon class="cls-1" points="769.51 245.39 610.63 245.39 667.38 159.15 667.38 102.11 655.28 102.11 655.28 87.11 682.38 87.11 682.38 163.64 638.46 230.39 741.68 230.39 697.76 163.64 697.76 87.11 724.86 87.11 724.86 102.11 712.76 102.11 712.76 159.15 769.51 245.39"/><path class="cls-2" d="M674.09,189.64c11.37,13.9,17.56-6.53,32,0L728,222.89H652.22Z"/><path class="cls-3" d="M706.09,189.64c-10.32,13.15-18.94-6-32,0l-21.87,33.25H728Z"/><circle class="cls-3" cx="680.96" cy="47.73" r="11"/><circle class="cls-2" cx="698.71" cy="72.36" r="7.5"/></g></svg>