<?xml version="1.0" encoding="utf-8"?>
<!-- Generator: Adobe Illustrator 24.1.0, SVG Export Plug-In . SVG Version: 6.00 Build 0)  -->
<svg version="1.1" id="Capa_1" xmlns="http://www.w3.org/2000/svg" xmlns:xlink="http://www.w3.org/1999/xlink" x="0px" y="0px"
	 viewBox="0 0 902 241.4" style="enable-background:new 0 0 902 241.4;" xml:space="preserve">
<style type="text/css">
	.st0{fill:#FFFFFF;stroke:#1D1D1B;stroke-width:3;stroke-miterlimit:10;}
	.st1{fill:#1D1D1B;stroke:#1D1D1B;stroke-width:2;stroke-miterlimit:10;}
	.st2{fill:#FFFFFF;stroke:#1D1D1B;stroke-width:2;stroke-miterlimit:10;}
</style>
<g id="Light_Version">
	<path class="st0" d="M4.8,63.5h90.6V79H20.6v49.5h74.1V144H20.6v62.1h74.1v15.5H4.8V63.5z"/>
	<path class="st0" d="M122.6,221.5v-158h32.8c23.6,0,40.8,1.9,51.5,5.7c14.8,5,27.5,14.8,35.9,27.9c8.6,13.3,12.9,29,13,47.4
		c0,15.8-3.4,29.7-10.3,41.8s-15.7,20.9-26.6,26.6c-10.9,5.7-26.2,8.6-45.9,8.6L122.6,221.5z M137.8,206.6H156
		c21.8,0,37-1.4,45.4-4.1c11.4-3.6,21.3-10.9,28-20.9c6.8-10,10.2-22.3,10.2-36.9c0-15.2-3.7-28.3-11.1-39.1S211,87.5,197.8,83.5
		c-9.9-3-26.2-4.5-48.9-4.5h-11.2V206.6z"/>
	<path class="st0" d="M286.9,63.5h15.8v95.4c0,11.3,0.2,18.4,0.6,21.2c0.6,5.6,2.4,10.9,5.5,15.6c2.9,4.2,7.3,7.7,13.2,10.5
		c5.6,2.7,11.7,4.2,17.9,4.2c5.2,0,10.3-1.1,15-3.3c4.7-2.1,8.8-5.3,12-9.2c3.4-4.2,5.8-9.1,7.1-14.3c1.1-4,1.6-12.2,1.6-24.7V63.5
		h15.8v95.4c0,14.1-1.4,25.5-4.1,34.2c-2.8,8.7-8.3,16.3-16.5,22.7c-8.3,6.5-18.3,9.7-30,9.7c-12.7,0-23.7-3-32.8-9.1
		c-8.7-5.7-15.2-14.2-18.2-24.2c-1.9-6.2-2.9-17.3-2.9-33.3L286.9,63.5z"/>
	<path class="st0" d="M430.4,63.5h15.8v142.8H507v15.3h-76.6V63.5z"/>
	<path class="st0" d="M695.2,63.5h31.2c12.5,0,22.2,1.5,28.9,4.5c6.6,2.8,12.1,7.6,16,13.7c3.9,6.1,5.9,13.3,5.8,20.5
		c0.1,6.7-1.7,13.4-5.1,19.2c-3.6,6-8.9,10.8-15.1,14c8.2,2.8,14.5,6.1,19,9.8c4.4,3.7,7.9,8.4,10.3,13.6c2.5,5.4,3.8,11.4,3.7,17.4
		c0.2,12.2-4.9,23.9-13.9,32.2c-9.3,8.8-21.7,13.2-37.3,13.2h-43.4V63.5z M710.6,79v50.6h9c11,0,19.1-1,24.2-3.1
		c5-1.9,9.3-5.3,12.3-9.7c3-4.3,4.6-9.4,4.6-14.7c0-7.2-2.5-12.9-7.6-17S740,79,728.9,79L710.6,79z M710.6,145.5v60.6h19.6
		c11.5,0,20-1.1,25.4-3.4c5.3-2.2,9.8-5.9,13-10.6c7.2-10.4,6.4-24.4-2-33.9c-4.6-5.2-10.9-8.8-18.9-10.7
		c-5.4-1.3-14.7-1.9-28.1-1.9L710.6,145.5z"/>
	<path class="st0" d="M804.7,192.1l13.4-8.1c9.5,17.4,20.4,26.2,32.8,26.2c5.2,0,10.3-1.2,14.9-3.7c4.4-2.2,8.1-5.7,10.6-9.9
		c2.4-4,3.7-8.6,3.7-13.2c0-5.3-1.8-10.5-5.4-15.6c-4.9-7-14-15.5-27.1-25.4c-13.1-9.9-21.3-17.1-24.6-21.6
		c-5.4-6.9-8.3-15.4-8.4-24.2c-0.1-6.6,1.6-13.1,4.9-18.8c3.3-5.7,8.1-10.3,13.9-13.4c6-3.3,12.7-4.9,19.5-4.9
		c7.3-0.1,14.6,1.8,20.9,5.5c6.5,3.7,13.3,10.5,20.6,20.3l-12.9,9.8c-5.9-7.9-11-13.1-15.2-15.6c-4.1-2.5-8.9-3.8-13.7-3.8
		c-6.4,0-11.6,1.9-15.6,5.8c-4,3.7-6.2,8.9-6.1,14.3c0,3.4,0.7,6.9,2.2,10c1.4,3.2,4,6.7,7.8,10.5c2.1,2,8.9,7.3,20.4,15.8
		c13.7,10.1,23.1,19.1,28.1,26.9c5.1,7.9,7.6,15.8,7.6,23.7c0,11.5-4.4,21.4-13,29.9c-8.7,8.5-19.3,12.7-31.7,12.7
		c-9.3,0.1-18.4-2.6-26.1-7.7C818.5,212.7,811.3,204.1,804.7,192.1z"/>
	<polygon class="st0" points="680.5,221.6 521.6,221.6 578.4,135.3 578.4,78.3 566.3,78.3 566.3,63.3 593.4,63.3 593.4,139.8 
		549.5,206.6 652.7,206.6 608.8,139.8 608.8,63.3 635.9,63.3 635.9,78.3 623.8,78.3 623.8,135.3 	"/>
	<path class="st1" d="M585.1,165.8c11.4,13.9,17.6-6.5,32,0l21.9,33.3h-75.8L585.1,165.8z"/>
	<path class="st2" d="M617.1,165.8c-10.3,13.1-18.9-6-32,0l-21.9,33.3H639L617.1,165.8z"/>
	<circle class="st2" cx="592" cy="23.9" r="11"/>
	<circle class="st1" cx="609.7" cy="48.5" r="7.5"/>
</g>
</svg>
